<svg viewBox="0 0 100 100" fill="none" xmlns="http://www.w3.org/2000/svg">
<path d="M8.6532 62.5854C13.333 65.1593 18.1613 69.6073 21.8796 73.4685C23.2603 74.9024 24.6094 77.0022 25.5507 78.7278C27.0844 81.5398 29.7697 83.9102 31.9816 86.1221C32.3825 86.523 33.9303 88.3722 33.9603 87.8926C34.0545 86.386 37.2693 83.9284 38.4385 82.9717C41.4583 80.5011 44.7887 78.4701 47.5512 75.7076C49.3617 73.8971 50.6609 71.7223 52.2377 69.7193C53.5965 67.9933 55.3999 66.6717 56.5597 64.8245C60.1342 59.1318 65.5662 54.4339 68.8748 48.5519C69.4851 47.4669 70.5037 46.1308 71.4524 45.3495C72.7789 44.2571 73.1591 42.7853 74.2643 41.5222C76.1226 39.3984 77.3348 37.0753 78.9508 34.8309C80.8156 32.2408 83.8944 30.4755 85.5119 27.6449C86.3887 26.1106 88.0551 25.6732 89.0528 24.3904C89.8986 23.303 90.3505 21.9711 91.6043 21.3442" stroke="currentColor" stroke-width="12" stroke-linecap="round"/>
</svg>
