<svg viewBox="0 0 100 100" fill="none" xmlns="http://www.w3.org/2000/svg">
<path d="M6.54822 73.133C6.54822 68.7756 9.57675 64.7474 11.7213 61.1732C14.0071 57.3634 16.7691 53.9787 19.609 50.5708C23.5732 45.8138 27.5007 40.9581 31.9609 36.6503C40.075 28.8137 49.6511 23.7251 60.3598 20.4978C62.0438 19.9903 63.8183 19.3938 65.563 19.1254C66.4108 18.9949 65.5803 19.8944 65.3971 20.1358C62.9245 23.3952 60.2261 26.4493 57.3586 29.3659C51.7428 35.0776 46.4076 40.9654 41.6434 47.4187C38.0747 52.2527 34.4904 57.1186 31.8704 62.5457C31.5023 63.3084 29.6298 66.1699 29.9551 67.1456C30.2559 68.0482 34.1715 67.6994 34.736 67.6735C40.7443 67.3972 46.2679 63.5773 51.3108 60.6454C56.7003 57.5119 62.0512 54.4131 67.9309 52.275C68.3328 52.1288 72.2702 50.3944 72.199 51.2495C71.9501 54.2364 69.2074 57.2625 67.6292 59.6198C65.3344 63.0475 62.5787 66.2882 60.6313 69.9357C60.2178 70.7102 57.3789 75.8885 59.0628 76.6622C61.0451 77.573 64.6258 77.0074 66.664 76.7527C71.0919 76.1992 75.3397 74.811 79.6343 73.676C81.1269 73.2815 82.9095 72.6717 84.4604 72.5901C85.3786 72.5418 84.8803 73.9108 84.7319 74.4301C84.0435 76.8393 83.1397 79.5776 82.0775 81.8201C81.7142 82.5871 82.4883 83.4733 83.1031 83.7807C85.8977 85.178 89.7789 82.1286 92.3331 81.2772" stroke="currentColor" stroke-width="12" stroke-linecap="round"/>
</svg>
