<svg viewBox="0 0 100 100" fill="none" xmlns="http://www.w3.org/2000/svg">
<path d="M15.4297 41.2931C13.2746 41.2931 9.90499 40.5946 8.69863 42.8803C7.67219 44.8252 6.41149 48.0802 8.8162 49.6261C10.2886 50.5726 13.9589 51.8572 15.2827 50.1551C16.1755 49.0072 16.2233 47.4716 16.2233 46.0548" stroke="currentColor" stroke-width="12" stroke-linecap="round"/>
<path d="M51.1778 41C47.8922 41 45.1461 48.6595 48.5912 49.9355C50.3114 50.5726 54.3454 50.8817 55.6603 49.3476C56.9379 47.8571 56.1048 45.6624 54.8813 44.439" stroke="currentColor" stroke-width="12" stroke-linecap="round"/>
<path d="M88.8869 39.9704C87.2467 39.9704 85.8053 40.2568 84.6542 41.5723C83.8174 42.5287 83.067 43.2681 83.067 44.5263C83.067 47.803 85.7619 50.5519 89.1367 50.5519C91.3437 50.5519 92.3762 49.7301 92.8696 47.5097C93.1782 46.121 93.384 44.5467 93.384 43.1449" stroke="currentColor" stroke-width="12" stroke-linecap="round"/>
</svg>
