<svg viewBox="0 0 100 100" fill="none" xmlns="http://www.w3.org/2000/svg">
<path d="M10.5968 64.2448C10.8275 61.937 14.5964 59.4318 16.0867 57.9415C19.6363 54.3919 23.5468 51.2947 27.0891 47.7525C31.0235 43.8181 35.6643 40.8038 39.5599 36.9082C41.6548 34.8133 44.3213 33.4519 46.5635 31.5087C48.7144 29.6446 50.8799 27.6216 52.8893 25.6121C54.6504 23.8511 56.2207 21.8741 57.9951 20.0997C59.2217 18.8731 60.8399 18.0682 62.0391 16.869C63.7477 15.1604 63.3572 16.0897 65.0891 17.3886C67.8241 19.4399 70.4304 21.3505 73.0189 23.6014C76.1948 26.3631 79.5395 29.9791 83.3887 31.8024C87.5336 33.7658 90.2388 38.9848 94.5945 40.2293C95.4456 40.4725 93.7033 41.8317 93.0582 42.6918C91.3662 44.9478 89.5232 46.9282 87.6361 48.995C81.2166 56.0259 73.9596 62.2334 67.5516 69.328C64.3926 72.8254 61.8085 76.5294 59.0796 80.3304C57.8532 82.0385 56.8849 84.1498 55.3293 85.5944C54.0483 86.7838 52.8375 88.1732 51.2627 88.9606C50.0716 89.5561 48.3888 89.9458 47.6027 90.9939C45.5722 93.7013 41.216 92.7109 38.2496 92.7109C37.0543 92.7109 28.4898 93.2805 28.4898 92.1009C28.4898 89.863 25.6337 86.3432 24.3328 84.5777C22.6458 82.2882 21.1321 79.7992 19.5433 77.416C17.2457 73.9696 14.7885 70.7977 12.3138 67.498C11.508 66.4236 10.6046 65.0816 10.1901 63.8381" stroke="currentColor" stroke-width="8" stroke-linecap="round"/>
<path d="M10.1901 63.8381V64.2448" stroke="currentColor" stroke-width="8" stroke-linecap="round"/>
<path d="M32.963 92.3042C50.9844 92.3042 69.0996 92.7109 87.0487 92.7109" stroke="currentColor" stroke-width="8" stroke-linecap="round"/>
<path d="M37.4363 42.6918C37.469 42.5935 45.0544 48.6833 45.8858 49.5147C48.9951 52.624 52.6403 55.7256 55.3293 59.1615C56.8845 61.1487 58.9934 63.1111 60.2092 65.2388C61.0327 66.68 62.7325 67.6647 63.4625 69.1247" stroke="currentColor" stroke-width="8" stroke-linecap="round"/>
<path d="M43.5362 37.4053C43.5362 38.2509 43.253 44.1498 45.3435 42.0592C46.405 40.9978 46.6572 38.5379 47.3994 37.2019C49.799 32.8827 53.4695 30.5972 57.1592 27.6454C58.5706 26.5164 60.1038 25.6477 61.4291 24.3922C62.1603 23.6995 63.3728 22.9007 64.2758 22.4492C65.3092 21.9325 65.1551 23.8286 65.5861 24.3922C66.7091 25.8607 69.3361 27.2388 71.189 27.2388C74.6652 27.2388 72.3261 28.0521 70.3756 28.0521C68.2626 28.0521 67.1921 29.1982 65.4957 30.2887C63.424 31.6206 61.0999 32.8492 59.1925 34.3327C56.0309 36.7918 52.2323 39.4467 51.2853 43.7085C50.0308 49.3536 56.5687 47.1801 59.0796 45.5384C60.8796 44.3615 62.5609 43.2573 63.5528 41.4718C64.4505 39.8561 66.5024 38.7093 68.1164 37.9023C70.0605 36.9303 71.9592 35.8246 74.0582 35.1686C75.7971 34.6252 78.0658 33.3532 79.9321 33.7679C81.7743 34.1773 80.8692 36.9024 79.9321 37.6312C78.3806 38.8379 77.0534 39.3755 75.2556 40.2745C73.9755 40.9145 72.8181 41.6391 71.4375 42.0592C71.0464 42.1783 70.239 42.1509 69.969 42.4885C69.6885 42.8391 68.6908 43.608 68.252 43.9118C66.9691 44.8 66.0234 46.3297 64.6824 47.0747C62.5322 48.2693 59.6939 49.6545 57.8596 51.322C56.677 52.3971 55.2184 54.2854 56.2329 56.1116C57.128 57.7226 62.6088 59.1793 63.9595 57.8286C65.2553 56.5327 66.0344 54.7596 67.3257 53.4683C69.3951 51.3989 71.5528 50.083 74.0356 48.5658C77.4255 46.4942 80.246 43.9162 83.3887 41.4718C83.5163 41.3727 86.1902 39.6949 86.1902 40.4778C86.1902 40.755 85.8184 42.5374 85.6254 42.6918C83.6701 44.2561 81.4758 46.0086 79.3221 47.2554C76.9139 48.6497 75.1911 51.4762 72.906 53.0842C69.5726 55.4299 66.7436 58.8745 65.4957 62.6181" stroke="currentColor" stroke-width="8" stroke-linecap="round"/>
</svg>
