<svg viewBox="0 0 100 100" fill="none" xmlns="http://www.w3.org/2000/svg">
<path d="M53.8119 87.831C46.6511 87.831 40.1349 85.8885 33.2531 84.5777C30.8115 84.1127 28.1954 83.3577 25.7525 83.3577C23.5662 83.3577 21.6358 82.0226 20.8725 79.9237C20.3428 78.4669 19.2926 77.1897 18.7489 75.7216C18.1786 74.1819 17.6768 72.2248 16.806 70.8417C15.239 68.353 14.7392 65.3231 13.3494 62.8215C12.9332 62.0724 12.8034 60.32 12.7401 59.4647L12.7394 59.4552C12.59 57.4383 12.3327 55.5197 12.3327 53.4457C12.3327 50.1364 13.6626 49.5183 16.6026 50.825C17.4955 51.2219 18.2823 52.9266 18.8392 53.762C19.8204 55.2337 20.3626 56.991 21.1888 58.5515C22.0538 60.1853 22.9356 61.8266 23.7192 63.5896C24.3024 64.902 25.6881 66.7387 26.6561 67.8143C28.2153 69.5467 29.233 70.2609 30.429 68.108C30.8344 67.3784 31.6763 66.9574 31.9427 66.1877C32.5939 64.3065 32.7501 62.0589 33.1627 60.0878C34.0297 55.9452 33.479 51.4016 33.479 47.1877V31.9154C33.479 26.6784 33.0862 21.6019 35.7156 16.869C36.5031 15.4515 37.111 14.0729 38.2685 12.9154C38.619 12.5649 39.1722 11.5667 39.1722 12.3957C39.1722 13.385 39.816 13.5645 40.0081 14.429C40.5929 17.0607 42.7277 19.7335 42.8321 22.4492C42.9567 25.6868 43.2388 28.8483 43.2388 32.0961C43.2388 38.0811 43.4154 44.0783 44.0747 50.0117C44.3246 52.2612 45.6556 55.3619 47.3054 56.9249C48.2531 57.8227 52.3798 59.1868 52.6145 57.309C53.4028 51.0027 52.9986 45.1635 52.9986 38.806C52.9986 34.4546 52.3593 29.4019 53.089 25.1151C53.4182 23.1812 53.8991 21.2384 54.196 19.3089C54.3918 18.0363 54.4039 15.2459 55.2352 14.2483C56.1328 13.1712 56.6157 9.5545 57.7881 12.1924C58.6839 14.2079 58.9451 16.8881 59.5051 19.1282C60.8409 24.4713 59.5051 30.437 59.5051 35.869C59.5051 39.1808 58.9889 43.1982 60.1151 46.3518C60.8701 48.4657 61.7765 50.4456 62.6681 52.4516C63.7426 54.8694 65.6464 55.5108 68.2483 56.089C69.3779 56.34 69.5929 56.6725 69.9879 55.3886C70.4005 54.0478 70.8195 52.6814 71.2079 51.322C72.0613 48.3351 70.9492 44.9701 71.9083 41.9011C72.6857 39.4132 72.5182 36.3617 72.5182 33.7453C72.5182 30.1712 73.4286 26.5798 73.7156 22.9915C73.8895 20.8186 73.9924 17.4155 74.8678 15.4457C75.4277 14.186 75.6435 15.2046 75.7941 16.259C76.0513 18.0596 76.9915 19.1989 76.9915 21.1163C76.9915 25.3607 77.3981 29.5039 77.3981 33.7453C77.3981 39.526 75.7944 44.7912 77.4885 50.5087C78.1848 52.8586 79.7697 52.8585 82.0134 52.8583H82.0747C84.1343 52.8583 84.9421 49.4131 85.6217 47.9784C86.5545 46.0092 86.6191 43.4935 87.7905 41.6526C88.738 40.1637 88.9982 38.0228 90.0949 36.6823C90.7516 35.8798 89.9298 34.5504 90.5016 33.8357C91.0512 33.1487 90.8179 31.9879 90.8179 31.102C90.8179 29.0326 91.2624 27.234 91.6312 25.2055C91.7517 24.5427 91.8514 23.8402 91.9995 23.1617C91.9602 22.1127 91.9908 20.5063 92.7608 20.5063C93.1229 20.5063 92.2764 22.1405 92.2638 22.1781C92.1582 22.495 92.0729 22.8254 91.9995 23.1617C92.014 23.5478 92.0379 23.8583 92.0379 23.9855C92.0379 27.2827 91.6312 30.4289 91.6312 33.7227C91.6312 36.598 90.4112 39.2187 90.4112 41.9689C90.4112 44.4275 90.8654 46.4357 91.202 48.7917C91.4881 50.7945 91.7346 54.2523 90.9083 56.1116C89.9035 58.3722 90.0046 60.8787 90.0046 63.4314C90.0046 65.7016 88.5803 68.6659 87.8809 70.8417C87.362 72.456 86.7109 74.0364 86.1413 75.6312C85.7218 76.8058 85.8509 78.1583 84.9213 79.0878C82.7909 81.2183 80.9974 83.2751 78.2115 84.6681C76.1297 85.709 73.7834 85.8848 71.7049 87.221C69.9198 88.3686 67.7731 89.4576 65.605 89.4576H59.6859C58.3092 89.4576 54.9465 87.0746 53.8119 87.831Z" fill="currentColor" stroke="currentColor" stroke-width="8" stroke-linecap="round"/>
</svg>
