<svg viewBox="0 0 100 100" fill="none" xmlns="http://www.w3.org/2000/svg">
<path d="M50.65 83.189C58.4885 83.189 66.7614 80.0573 72.9205 74.7407C75.6907 72.3494 78.5707 69.2639 80.7399 66.2379C83.0607 63.0002 85.8834 59.35 87.6189 55.7183C89.3312 52.1353 91.296 48.942 92.271 44.9535C93.1442 41.3813 93.0109 37.8166 92.9638 34.1342C92.8737 27.0863 86.8188 21.416 82.0266 17.5646C76.0588 12.7684 69.6027 9.81137 62.3296 8.24416C55.2957 6.72847 48.1919 7.15405 41.049 7.15405C35.0458 7.15405 28.1438 6.10173 22.6883 9.49778C18.0658 12.3753 13.7722 13.8756 11.2561 19.4178C6.14812 30.6691 5.47091 42.0714 11.652 53.2111C12.7656 55.2179 13.8514 56.8869 15.3638 58.5526C17.5127 60.9193 19.9548 61.7051 22.5646 63.3218C25.1974 64.9529 28.2111 65.6914 30.8788 67.2735C33.5462 68.8553 36.2353 71.849 35.4814 75.5855C35.0495 77.7259 31.2482 79.5436 29.8148 80.7363C27.9838 82.26 26.183 82.1877 24.1235 82.9438C20.1501 84.4025 16.1888 84.2881 12.3449 86.4049C10.6996 87.3109 7.61886 90.9553 7 93" stroke="currentColor" stroke-width="12" stroke-linecap="round"/>
</svg>
