<svg viewBox="0 0 100 100" fill="none" xmlns="http://www.w3.org/2000/svg">
<path d="M9.75251 52.344C9.75251 61.5213 9.75251 70.6986 9.75251 79.8758C9.75251 82.5532 9.05172 86.3742 9.7856 88.9428C10.112 90.0852 10.1239 91.3421 11.2416 91.0938C14.6215 90.3427 18.9419 91.0607 22.3933 91.0607C40.0199 91.0607 57.6465 91.0607 75.273 91.0607C78.6884 91.0607 81.7628 92.2519 85.1011 92.2519C86.491 92.2519 87.8808 92.2519 89.2706 92.2519C91.8732 92.2519 90.9769 86.9619 91.223 84.8395C91.8081 79.793 91.4327 74.5601 90.7266 69.6176C90.4766 67.8676 89.4154 66.2527 88.9397 64.5877C88.6967 63.7372 88.2354 61.5482 87.6492 60.8153C86.4132 59.2704 85.9946 55.3376 85.9946 53.2374C85.9946 51.8476 85.9946 50.4578 85.9946 49.068C85.9946 46.4198 83.9936 48.1136 82.2884 48.1745C72.1012 48.5383 61.9548 48.7701 51.7452 48.7701C44.4375 48.7701 37.3415 49.6946 30.1367 49.9614C23.9566 50.1903 17.7248 49.9614 11.5394 49.9614" stroke="currentColor" stroke-width="12" stroke-linecap="round"/>
<path d="M25.8348 46.9832C25.8348 41.773 26.7356 36.9112 27.0261 31.8274C27.2076 28.6503 29.3828 22.5461 32.089 20.7419C33.4815 19.8135 34.8494 17.6707 36.093 16.4731C38.026 14.6118 39.9039 13.3357 42.5127 12.5684C45.8605 11.5837 50.3257 9.69541 53.8299 10.9469C57.6752 12.3202 60.5697 13.8726 63.658 16.2746C66.1959 18.2485 66.8902 21.3492 68.2577 24.0841C70.9092 29.3871 70.5079 36.8745 70.5079 42.8137" stroke="currentColor" stroke-width="12" stroke-linecap="round"/>
</svg>
