<svg viewBox="0 0 100 100" fill="none" xmlns="http://www.w3.org/2000/svg">
<path d="M68.0264 89.6228C66.5322 90.0825 65.0284 91.3503 63.4424 91.3503C57.066 91.3503 47.5558 91.7583 41.3802 90.2144C36.4913 88.9922 30.7636 88.099 26.326 85.5908C23.7669 84.1443 21.1181 83.2078 18.7441 81.4273C15.3899 78.9116 9.16413 68.9846 8.66413 63.9846C8.66413 58.9621 8.87679 53.995 9.05857 48.9961C9.2005 45.0927 10.3581 41.202 11.0526 37.3822C12.4632 29.6241 23.0302 35.3799 26.0192 39.2229C27.2964 40.8649 28.7194 43.7105 28.7803 45.8406C28.7999 46.5267 28.798 47.6753 28.7924 48.5286C28.8159 47.356 28.8848 45.5131 29.087 44.3505C29.4122 42.4806 30.0707 40.5988 30.3361 38.7408C30.463 37.8522 29.9401 36.4785 31.3441 36.7905C32.7096 37.094 33.8161 37.6438 34.9159 38.5436C37.4763 40.6385 38.005 41.975 38.5535 45.753C38.5673 45.8486 38.6017 46.188 38.6349 46.643C38.8276 45.6434 39.0134 44.8172 39.0355 44.745C39.9874 41.6389 42.1936 38.5997 44.1632 36.0674C44.908 35.1098 45.5099 33.6132 46.727 33.6132C49.9437 33.6132 53.2352 36.1412 53.2352 39.5516V45.8625C53.2352 47.6956 53.5265 47.0937 53.6296 45.753C53.8352 43.0801 56.3844 39.298 58.4505 37.6452C59.9018 36.484 65.2008 37.6901 66.4706 38.9599C68.5906 41.0799 70.0687 44.9148 71.0723 47.7251C71.5584 49.0861 72.2906 50.4552 72.8692 51.7571C73.2094 52.5226 72.9021 53.3787 73.9429 52.546C74.7713 51.8833 74.3682 49.135 74.1182 48.01C73.467 45.0795 73.7457 41.8871 73.7457 38.8285C73.7457 32.189 75.0827 25.6124 75.7398 19.041C76.0124 16.315 77.1461 12.2702 78.2817 9.77183C78.6128 9.0434 80.57 6.0422 81.24 6.00279C85.9481 5.72584 86.1115 14.6127 86.784 17.6386C87.0242 18.7198 87.7623 19.9266 88.1426 20.9913C88.7725 22.7552 88.9431 25.0957 89.3039 26.9516C90.7612 34.4463 88.7135 42.2703 90.0052 49.6973C90.6499 53.4044 90.7064 56.9597 90.7064 60.7414C90.7064 64.7914 88.7754 68.8223 87.1565 72.4649C85.2181 76.8262 81.0161 80.7747 77.6901 84.1007C75.8826 85.9082 74.7504 87.1697 72.3433 88.045C70.9266 88.5602 69.4626 89.1809 68.0264 89.6228Z" fill="currentColor"/>
<path d="M8.66413 63.9846C8.66413 58.9621 8.87679 53.995 9.05857 48.9961C9.2005 45.0927 10.3581 41.202 11.0526 37.3822C12.4632 29.6241 23.0302 35.3799 26.0192 39.2229C27.2964 40.8649 28.7194 43.7105 28.7803 45.8406C28.8161 47.0964 28.7803 49.9024 28.7803 49.6096C28.7803 49.3169 28.7862 46.0806 29.087 44.3505C29.4122 42.4806 30.0707 40.5988 30.3361 38.7408C30.463 37.8522 29.9401 36.4785 31.3441 36.7905C32.7096 37.094 33.8161 37.6438 34.9159 38.5436C37.4763 40.6385 38.005 41.975 38.5535 45.753C38.6084 46.1312 38.9837 50.3174 38.3343 50.3985C37.7585 50.4705 38.9766 44.9373 39.0355 44.745C39.9874 41.6389 42.1936 38.5997 44.1632 36.0674C44.908 35.1098 45.5099 33.6132 46.727 33.6132C49.9437 33.6132 53.2352 36.1412 53.2352 39.5516C53.2352 41.6552 53.2352 43.7589 53.2352 45.8625C53.2352 47.6956 53.5265 47.0937 53.6296 45.753C53.8352 43.0801 56.3844 39.298 58.4505 37.6452C59.9018 36.484 65.2008 37.6901 66.4706 38.9599C68.5906 41.0799 70.0687 44.9148 71.0723 47.7251C71.5584 49.0861 72.2906 50.4552 72.8692 51.7571C73.2094 52.5226 72.9021 53.3787 73.9429 52.546C74.7713 51.8833 74.3682 49.135 74.1182 48.01C73.467 45.0795 73.7457 41.8871 73.7457 38.8285C73.7457 32.189 75.0827 25.6124 75.7398 19.041C76.0124 16.315 77.1461 12.2702 78.2817 9.77183C78.6128 9.0434 80.57 6.0422 81.24 6.00279C85.9481 5.72584 86.1115 14.6127 86.784 17.6386C87.0242 18.7198 87.7623 19.9266 88.1426 20.9913C88.7725 22.7552 88.9431 25.0957 89.3039 26.9516C90.7612 34.4463 88.7135 42.2703 90.0052 49.6973C90.6499 53.4044 90.7064 56.9597 90.7064 60.7414C90.7064 64.7914 88.7754 68.8223 87.1565 72.4649C85.2181 76.8262 81.0161 80.7747 77.6901 84.1007C75.8826 85.9082 74.7504 87.1697 72.3433 88.045C70.9266 88.5602 69.4626 89.1809 68.0264 89.6228C66.5322 90.0825 65.0284 91.3503 63.4424 91.3503C57.066 91.3503 47.5558 91.7583 41.3802 90.2144C36.4913 88.9922 30.7636 88.099 26.326 85.5908C23.7669 84.1443 21.1181 83.2078 18.7441 81.4273C15.3899 78.9116 9.16413 68.9846 8.66413 63.9846Z" stroke="currentColor" stroke-width="8" stroke-linecap="round"/>
<path d="M6.46281 7.76294C10.1695 8.13361 13.854 13.0345 16.804 15.0626C20.0675 17.3063 22.6462 20.5563 25.9287 22.6665C28.8867 24.5681 31.725 28.6994 34.2084 31.1828C38.6219 35.5963 42.7252 40.0002 46.307 45.1739C50.516 51.2536 56.9934 56.1966 59.9601 63.119C61.6234 67 65.5092 71.0675 68.5102 74.0685C70.86 76.4183 74.6158 78.5339 76.283 81.3682C77.4463 83.3457 79.5945 84.2065 81.1495 85.7615C82.1911 86.8032 82.7547 88.1926 83.7179 89.2762C84.5541 90.2169 85.607 90.6211 86.1511 91.7094" stroke="#FF0000" stroke-width="12" stroke-linecap="round"/>
</svg>
