<svg viewBox="0 0 100 100" fill="none" xmlns="http://www.w3.org/2000/svg">
<path d="M76.0194 4.60382C76.9783 4.71663 77.7243 6.42603 78.2967 7.09798C79.0152 7.94152 79.9244 8.62951 80.6221 9.47164C81.458 10.4805 82.6734 11.6505 83.7067 12.496C85.1671 13.6908 86.7067 15.0742 88.0564 16.424C89.0456 17.4132 90.1259 18.1357 91.153 19.0868C91.6614 19.5575 92.211 20.2021 92.8278 20.5447C93.1427 20.7196 93.7365 20.9227 93.9725 21.1351C94.2676 21.4007 94.2828 21.797 94.6713 22.0027C95.9216 22.6646 95.211 23.0949 94.2376 23.798C93.2621 24.5025 92.2293 25.4553 91.4181 26.3403C89.4317 28.5073 86.7375 30.0318 84.6224 32.0998C77.8018 38.7689 71.1242 45.4518 65.127 52.8965C64.3013 53.9215 63.7946 55.1508 62.8859 56.1256C61.0884 58.0539 59.0363 59.7387 57.271 61.6923C53.0556 66.3574 48.8122 71.0669 44.3665 75.5126C41.1715 78.7076 38.1022 81.9937 34.908 85.188C34.4538 85.6422 33.932 85.9471 33.4862 86.3929C32.89 86.989 31.5007 87.7536 31.1125 88.4653C30.5206 89.5505 29.5863 90.286 28.6907 91.092C28.0488 91.6697 27.2233 91.5574 26.7869 92.321C26.5132 92.8001 25.6303 93.5339 25.1603 93.7428C24.7649 93.9186 24.6675 94.3106 24.353 94.5621C23.8235 94.9857 21.9922 94.5189 21.413 94.4417C18.2042 94.0138 14.8541 93.7428 11.6051 93.7428C10.8801 93.7428 10.258 93.8442 9.55675 93.9717C8.83829 94.1024 9.05801 94.0894 9.20733 93.4175C9.58735 91.7074 9.83735 89.6516 9.87003 87.887C9.90622 85.9325 9.87003 83.974 9.87003 82.0191C9.87003 80.2336 10.6575 78.5397 10.7376 76.7777C10.765 76.1745 10.8803 73.6753 11.2798 73.3558C12.7777 72.1574 13.7561 70.1421 15.1234 68.753C18.7513 65.0675 22.6479 61.4072 25.4254 57.0534C27.4419 53.8924 30.452 51.6715 33.4862 49.5709C38.9003 45.8227 42.9259 41.35 47.0052 36.2206C49.3948 33.2159 51.8162 30.3908 54.4275 27.6055C55.4611 26.503 56.8623 25.5997 57.994 24.5812C59.3766 23.3368 60.6586 22.013 61.9702 20.7014C63.149 19.5225 64.6442 18.7657 65.8259 17.6168C67.4413 16.0463 68.8284 14.0941 70.0551 12.2068C70.7372 11.1574 71.8163 10.3589 72.5975 9.37525C72.8443 9.06446 73.2894 8.67987 73.6337 8.50772" stroke="currentColor" stroke-width="8" stroke-linecap="round"/>
<path d="M15.509 72.2714C19.4869 75.9178 23.2011 80.1575 26.57 84.3686C27.5766 85.6268 28.5765 87.5889 30.0401 88.3207" stroke="currentColor" stroke-width="8" stroke-linecap="round"/>
<path d="M78.1882 11.3272C77.8753 12.3284 77.1161 13.2516 76.5736 14.1346C75.6311 15.6689 74.683 17.1841 73.6578 18.6651C72.3755 20.5172 70.9003 22.2526 69.1996 23.7377C66.43 26.1563 63.619 28.4553 60.9339 30.9551C59.9024 31.9155 58.6633 32.6561 57.8494 33.8349C57.4772 34.3739 56.8908 34.6494 56.4999 35.1844C56.0191 35.8422 55.5113 36.5104 54.9335 37.0881C52.6524 39.3692 50.7523 42.1439 48.3547 44.2934C45.7001 46.6734 42.9732 49.0102 40.2818 51.3542C38.0055 53.3368 35.9584 55.6169 33.6187 57.5233C32.4698 58.4594 31.5843 59.6328 30.4257 60.5597C29.3452 61.4241 28.2303 62.334 27.2689 63.331C26.5435 64.0832 26.0786 65.0919 25.3651 65.8733C24.5637 66.7511 23.6454 67.6035 22.9794 68.5723C22.6561 69.0425 22.1926 69.4684 21.7986 69.8857C21.2417 70.4753 23.0932 71.1103 23.5336 71.2834C24.7795 71.7728 25.9059 72.3784 26.8351 73.3076C27.1266 73.5991 27.1473 72.832 27.4375 72.5003C28.0199 71.8348 28.5961 71.1744 29.1847 70.5122C31.4677 67.9438 34.3174 66.1702 36.7635 63.8129C39.2682 61.3994 42.4654 59.6638 44.4629 56.7642C47.2487 52.7203 50.3128 48.5148 53.7286 44.9923C56.2675 42.3741 59.2615 39.8336 61.1749 36.7025C63.3838 33.088 66.6399 29.9122 69.6093 26.9428C72.5165 24.0356 75.5263 21.0703 78.8389 18.653C79.6461 18.064 80.4101 17.6939 81.321 17.3035C81.4715 17.239 81.4834 17.6265 81.574 17.7373C81.9806 18.2342 82.5679 18.6045 83.056 19.0145C84.0179 19.8225 85.4918 20.4441 86.1647 21.5207C86.4588 21.9912 86.6949 21.9545 85.8996 21.9545C85.2805 21.9545 84.3612 22.4586 83.8272 22.7256C81.4956 23.8914 80.3607 25.7698 78.8871 27.8103C77.394 29.8776 76.0396 32.1003 74.1759 33.8831C69.8405 38.03 64.7502 41.3448 61.3918 46.4623C59.9768 48.6185 59.199 51.0559 57.5723 53.0893C55.7029 55.426 53.4591 57.4248 51.2947 59.4753C50.3359 60.3836 49.1484 61.0048 48.1499 61.873C47.2247 62.6776 46.3608 63.5612 45.4268 64.3551C43.6079 65.9012 41.8947 67.3109 40.2337 69.0181C38.8752 70.4143 37.659 72.4069 36.0165 73.4522C35.0733 74.0524 33.8697 74.7314 33.0765 75.5246C32.3589 76.2422 31.6576 76.9927 31.0282 77.8019C30.6234 78.3223 29.6064 79.015 29.6064 79.6454" stroke="currentColor" stroke-width="8" stroke-linecap="round"/>
</svg>
