<svg viewBox="0 0 100 100" fill="none" xmlns="http://www.w3.org/2000/svg">
<path d="M59.2393 91.0606C55.7557 91.0606 52.2655 91.1251 48.7825 91.0606C45.1123 90.9927 41.5365 88.9205 38.2595 87.4868C33.9066 85.5824 28.7323 84.772 24.9899 81.8613C19.353 77.477 14.9833 72.5593 12.0513 66.0437C9.77222 60.9791 9.80109 55.9849 9.80109 50.557C9.80109 45.6696 9.21388 39.6384 12.9117 35.7984C19.7688 28.6775 24.4329 19.5089 34.818 17.2011C42.9966 15.3837 51.2625 17.2167 58.6437 20.9073C68.9565 26.0637 75.7418 33.6159 81.8737 42.8137" stroke="currentColor" stroke-width="12" stroke-linecap="round"/>
<path d="M51.496 46.3876C59.3937 46.3876 67.2915 46.3876 75.1893 46.3876C77.2081 46.3876 79.2619 46.4996 81.278 46.3876C83.3291 46.2736 83.4877 40.1836 83.9584 38.6773C84.9124 35.6246 84.5207 30.4861 83.6937 27.5918C83.2374 25.9947 82.2989 18.9029 81.278 18.3924" stroke="currentColor" stroke-width="12" stroke-linecap="round"/>
</svg>
