<svg viewBox="0 0 100 100" fill="none" xmlns="http://www.w3.org/2000/svg">
<path d="M33.0554 94.0389C45.2772 93.8125 55.647 89.563 64.0287 80.9348C70.274 74.5058 77.1732 69.3005 81.5671 61.3117C88.4148 48.8612 81.5791 34.4581 72.9303 24.9445C63.7591 14.8562 45.0274 15.0868 33.651 20.775C28.6338 23.2836 26.4643 28.1856 23.1942 32.39C22.3118 33.5245 21.0831 34.7989 20.0837 35.7984C18.979 36.903 18.76 38.7343 18.76 36.2617" stroke="currentColor" stroke-width="12" stroke-linecap="round"/>
<path d="M11.0167 7.07523C11.0167 15.3524 9.82539 23.4516 9.82539 31.7612C9.82539 33.9239 8.44364 42.2181 10.421 42.2181C20.5469 42.2181 30.6728 42.2181 40.7987 42.2181" stroke="currentColor" stroke-width="12" stroke-linecap="round"/>
</svg>
