<svg viewBox="0 0 100 100" fill="none" xmlns="http://www.w3.org/2000/svg">
<path d="M7.98987 50.5571C7.98987 61.0359 7.98987 71.5148 7.98987 81.9937C7.98987 83.7255 7.98987 85.4572 7.98987 87.189C7.98987 90.1565 8.2217 89.2255 10.6703 90.1672C14.045 91.4652 19.2937 90.465 22.914 90.465C27.0725 90.465 31.2309 90.465 35.3894 90.465C47.3401 90.465 59.1727 91.6563 70.9955 91.6563C74.3156 91.6563 77.6358 91.6563 80.9559 91.6563C83.7731 91.6563 87.7553 92.394 90.4531 91.6232C92.2214 91.118 89.7288 78.1 89.1294 76.302C87.4853 71.3696 86.6145 67.4943 86.6145 62.139C86.6145 60.6636 86.1419 58.1466 87.0778 56.9768C87.8688 55.988 88.9626 53.5353 87.2102 53.5353C80.4596 53.5353 73.709 53.5353 66.9584 53.5353C59.4136 53.5353 51.8688 53.5353 44.324 53.5353C39.3669 53.5353 34.2578 52.344 29.433 52.344C26.2442 52.344 22.8738 51.1527 19.9027 51.1527C16.7259 51.1527 13.5492 51.1527 10.3724 51.1527" stroke="currentColor" stroke-width="12" stroke-linecap="round"/>
<path d="M21.6896 47.5788C21.6896 37.2516 27.7107 28.9266 33.3377 20.7419C36.7367 15.7978 41.9617 10.6491 48.3611 10.6491C52.5953 10.6491 56.0319 11.7219 60.1415 12.4691C64.6459 13.2881 71.3202 18.6749 73.378 22.5619" stroke="currentColor" stroke-width="12" stroke-linecap="round"/>
</svg>
