<svg viewBox="0 0 100 100" fill="none" xmlns="http://www.w3.org/2000/svg">
<path d="M20 58C14.5944 63.7235 14 74.5295 14 82C14 85 25 85 29 85C31.1818 85 33.1624 83.856 35.2222 83.2222C37.6034 82.4896 40.1206 83.4152 42.5 82.5C45.0837 81.5063 48.3808 82 51.1111 82C54.7007 82 58.0356 81 61.4444 81H79C80.3491 81 85.8157 81.8468 86.7778 80.7778C87.7145 79.737 87.0876 74.317 86.7778 73C85.7609 68.6785 83.6009 62.712 80.4444 59.5556C78.2246 57.3357 76.057 54.6578 73.5556 52.6111C71.7673 51.148 68.7863 50.3418 67.2222 48.7778C67.1644 48.72 69.6584 46.7297 70.2222 46.2222C72.1235 44.5111 73 44.2049 73 41.4445C73 35.7438 71.674 28.4559 68.5556 23.5556C64.9363 17.8682 59.4014 18 53.2222 18C48.2216 18 40.7764 19.8917 38.2222 25C36.6444 28.1557 37.4137 37.914 38.0556 41.4445C38.5102 43.9448 39.9434 45 36.4444 45C33.961 45 31.4029 45.9644 29.5 47.4445C25.7888 50.3309 23.2179 54.5928 20 58Z" fill="currentColor" stroke="currentColor" stroke-width="12" stroke-linecap="round"/>
</svg>
