<svg viewBox="0 0 100 100" fill="none" xmlns="http://www.w3.org/2000/svg">
<path d="M84.9005 16.6055C79.9873 16.0596 76.3879 10.0038 71.2007 9.45781C69.0647 9.23296 66.7533 8.29847 64.6487 7.80325C62.4441 7.28452 59.751 7.67089 57.501 7.67089C52.2154 7.67089 44.6675 8.08251 40.4921 11.8404C35.8748 15.996 32.8226 22.6386 30.5647 28.386C28.799 32.8807 26.5276 36.5411 26.5276 41.6224C26.5276 46.6369 26.8443 51.6309 27.1233 56.5135C27.3279 60.0948 30.1303 64.6166 32.6164 67.1026C35.5628 70.049 39.0877 75.3816 43.2387 76.7653C45.488 77.5151 47.8557 78.5996 50.0555 79.4457C52.1327 80.2446 55.0072 79.7435 57.2031 79.7435C62.335 79.7435 66.3296 79.1706 71.1676 77.6587C77.4239 75.7036 82.4255 71.5436 85.827 65.9776C87.9975 62.4258 90.8569 58.7328 90.8569 54.4287C90.8569 49.2285 91.4525 44.1363 91.4525 38.9421C91.4525 35.2478 91.4834 33.2218 89.6656 30.0405C88.8036 28.532 86.3465 25.0718 84.9005 24.3488" stroke="currentColor" stroke-width="12" stroke-linecap="round"/>
<path d="M43.8012 46.3876C53.3319 46.3876 62.7985 46.9832 72.392 46.9832" stroke="currentColor" stroke-width="12" stroke-linecap="round"/>
<path d="M58.6922 27.9227C57.1011 28.1216 57.9967 45.5094 58.0966 48.3069C58.2356 52.1996 59.2879 56.2346 59.2879 60.0873" stroke="currentColor" stroke-width="12" stroke-linecap="round"/>
<path d="M36.6535 72.0002C33.0867 72.446 28.8479 76.5716 25.932 78.5522C22.5894 80.8226 19.7299 83.2756 16.6995 85.6999C14.29 87.6275 11.6961 92.2222 9.25403 93.4432" stroke="currentColor" stroke-width="12" stroke-linecap="round"/>
</svg>
