<svg viewBox="0 0 100 100" fill="none" xmlns="http://www.w3.org/2000/svg">
<path d="M84.9248 9.45782C80.2025 9.19547 75.5632 5.88397 70.6294 5.88397C67.5663 5.88397 64.7671 5.28833 61.6617 5.28833C48.8155 5.28833 34.3645 8.28541 25.9563 18.8557C17.9872 28.874 21.6779 45.2286 29.2323 54.4618C34.6854 61.1268 40.1161 65.2194 48.5906 67.1027C52.2894 67.9246 55.8083 68.4263 59.6431 68.4263C63.6311 68.4263 71.3027 69.3715 74.2032 65.7459C76.3622 63.0472 80.4556 60.9827 83.0055 58.4328C85.4435 55.9948 88.3566 53.0883 89.6899 49.8291C92.57 42.7887 94.4779 33.4437 90.5834 26.4336C89.3661 24.2425 88.4851 21.3402 87.4397 18.9881C86.4983 16.87 84.6725 15.5053 83.7335 13.6273" stroke="currentColor" stroke-width="12" stroke-linecap="round"/>
<path d="M46.2081 36.8573H69.4381" stroke="currentColor" stroke-width="12" stroke-linecap="round"/>
<path d="M36.0822 62.4699C30.0877 68.4644 23.1742 74.9293 18.6762 82.126C17.7734 83.5705 15.5913 85.2288 14.3082 86.3286C12.6554 87.7453 11.8435 90.0759 9.87396 91.0607" stroke="currentColor" stroke-width="12" stroke-linecap="round"/>
</svg>
